<svg xmlns="http://www.w3.org/2000/svg" viewBox="0 0 900 220"><defs><radialGradient id="bgRad" cx="30%" cy="40%" r="90%"><stop offset="0%" stop-color="#13110a"/><stop offset="58%" stop-color="#0a0a0c"/><stop offset="100%" stop-color="#000"/></radialGradient><radialGradient id="vign" cx="50%" cy="50%" r="65%"><stop offset="58%" stop-color="#000" stop-opacity="0"/><stop offset="100%" stop-color="#000" stop-opacity=".8"/></radialGradient><linearGradient id="gold" x1="0%" x2="100%" y1="0%" y2="0%"><stop offset="0%" stop-color="#caa84d" stop-opacity="0"/><stop offset="20%" stop-color="#caa84d" stop-opacity=".5"/><stop offset="80%" stop-color="#caa84d" stop-opacity=".5"/><stop offset="100%" stop-color="#caa84d" stop-opacity="0"/></linearGradient><filter id="glow"><feGaussianBlur result="b" stdDeviation="2"/><feMerge><feMergeNode in="b"/><feMergeNode in="SourceGraphic"/></feMerge></filter></defs><style>@keyframes pulse{0%{opacity:.4}50%{opacity:.9}}@keyframes rise{0%{opacity:0;transform:translateY(6px)}}@keyframes scanFp{0%{transform:translateY(0)}50%{transform:translateY(70px)}}.p1{animation:pulse 3s infinite ease-in-out}.p2{animation:pulse 4s infinite ease-in-out 1s}.r1{animation:rise .6s ease-out .2s both}.r2{animation:rise .6s ease-out .45s both}.r3{animation:rise .6s ease-out .7s both}.r4{animation:rise .6s ease-out .95s both}.rr1{animation:rise .6s ease-out .55s both}.rr2{animation:rise .6s ease-out .8s both}.rr3{animation:rise .6s ease-out 1.05s both}.rr4{animation:rise .6s ease-out 1.3s both}.fpscan{animation:scanFp 4s ease-in-out infinite}.fsa{font-family:Arial,&quot;Segoe UI&quot;,Helvetica,sans-serif}.fm{font-family:&quot;Courier New&quot;,Consolas,monospace}</style><rect width="900" height="220" fill="url(#bgRad)"/><text x="60" y="35" fill="#5c574c" class="fm" font-size="10" letter-spacing="4">// ABOUT</text><rect width="6" height="6" x="118" y="28" fill="#caa84d" opacity=".6" transform="rotate(45 121 31)"/><line x1="60" x2="60" y1="45" y2="45" stroke="#1a1a1f" stroke-width=".5"><animate fill="freeze" attributeName="x2" begin="0.1s" dur="0.9s" from="60" to="840"/></line><g><g class="r1"><text x="60" y="80" fill="#5c574c" class="fm" font-size="10">name</text><text x="160" y="80" fill="#ece6d8" class="fsa" font-size="13" font-weight="500">Anh Tu Nguyen</text></g><g class="r2"><text x="60" y="108" fill="#5c574c" class="fm" font-size="10">alias</text><text x="160" y="108" fill="#caa84d" class="fm" font-size="13">ekaznyra</text></g><g class="r3"><text x="60" y="136" fill="#5c574c" class="fm" font-size="10">role</text><text x="160" y="136" fill="#ece6d8" class="fsa" font-size="13" font-weight="500">Cybersecurity Researcher</text></g><g class="r4"><text x="60" y="164" fill="#5c574c" class="fm" font-size="10">focus</text><text x="160" y="164" fill="#8a8578" class="fsa" font-size="13">DFIR &amp; Detection Engineering</text></g><g class="r4"><text x="60" y="192" fill="#5c574c" class="fm" font-size="10">stack</text><text x="160" y="192" fill="#8a8578" class="fm" font-size="12">Splunk · ELK · YARA · Sigma</text></g></g><line x1="450" x2="450" y1="60" y2="200" stroke="#1a1a1f" stroke-width=".5"/><g><text x="480" y="80" fill="#5c574c" class="fm" font-size="10">research_focus</text><g class="rr1"><circle cx="490" cy="103" r="2" fill="#caa84d" class="p1" opacity=".6"/><text x="502" y="107" fill="#ece6d8" class="fsa" font-size="12">Digital Forensics &amp; Incident Response</text></g><g class="rr2"><circle cx="490" cy="127" r="2" fill="#8a8578" class="p2" opacity=".5"/><text x="502" y="131" fill="#8a8578" class="fsa" font-size="12">Threat Hunting Workflows</text></g><g class="rr3"><circle cx="490" cy="151" r="2" fill="#8a8578" class="p1" opacity=".5"/><text x="502" y="155" fill="#8a8578" class="fsa" font-size="12">YARA &amp; Sigma Rule Engineering</text></g><g class="rr4"><circle cx="490" cy="175" r="2" fill="#8a8578" class="p2" opacity=".5"/><text x="502" y="179" fill="#8a8578" class="fsa" font-size="12">Malware Behavior Analysis</text></g></g><g clip-path="url(#fpClip)" opacity=".22" transform="translate(795,95)"><g fill="none" stroke="#caa84d" stroke-width="1"><path d="M0 35 A35 35 0 0 1 70 35"/><path d="M8 38 A27 27 0 0 1 62 38"/><path d="M16 40 A19 19 0 0 1 54 40"/><path d="M24 41 A11 11 0 0 1 46 41"/><path d="M3 50 A32 32 0 0 0 67 50"/><path d="M12 56 A23 23 0 0 0 58 56"/></g><rect width="78" height="3" x="-4" y="-6" fill="#f5e3a3" class="fpscan" filter="url(#glow)" opacity=".7"/></g><clipPath id="fpClip"><rect width="90" height="74" x="785" y="88"/></clipPath><rect width="900" height="220" fill="url(#vign)"/></svg>