<svg xmlns="http://www.w3.org/2000/svg" viewBox="0 0 900 330"><defs><radialGradient id="bgRad" cx="50%" cy="40%" r="80%"><stop offset="0%" stop-color="#14110a"/><stop offset="42%" stop-color="#0a0a0c"/><stop offset="100%" stop-color="#000"/></radialGradient><radialGradient id="vign" cx="50%" cy="50%" r="62%"><stop offset="55%" stop-color="#000" stop-opacity="0"/><stop offset="100%" stop-color="#000" stop-opacity=".85"/></radialGradient><linearGradient id="accent" x1="0%" x2="100%" y1="0%" y2="0%"><stop offset="0%" stop-color="#caa84d" stop-opacity="0"/><stop offset="20%" stop-color="#caa84d"/><stop offset="50%" stop-color="#f5e3a3"/><stop offset="80%" stop-color="#caa84d"/><stop offset="100%" stop-color="#caa84d" stop-opacity="0"/></linearGradient><linearGradient id="goldText" x1="0%" x2="100%" y1="0%" y2="0%"><stop offset="0%" stop-color="#a9863a"/><stop offset="50%" stop-color="#f5e3a3"/><stop offset="100%" stop-color="#a9863a"/></linearGradient><linearGradient id="nameGrad" x1="0%" x2="100%" y1="0%" y2="100%"><stop offset="0%" stop-color="#fbf7ec"/><stop offset="100%" stop-color="#9a958a"/></linearGradient><linearGradient id="shine" x1="350" x2="460" y1="0" y2="0" gradientUnits="userSpaceOnUse"><stop offset="0" stop-color="#fff" stop-opacity="0"/><stop offset=".5" stop-color="#fff7d6" stop-opacity=".92"/><stop offset="1" stop-color="#fff" stop-opacity="0"/><animateTransform attributeName="gradientTransform" begin="1.7s" dur="4.8s" from="-380 0" repeatCount="indefinite" to="380 0" type="translate"/></linearGradient><linearGradient id="edge" x1="0%" x2="100%" y1="0%" y2="0%"><stop offset="0%" stop-color="#caa84d" stop-opacity="0"/><stop offset="50%" stop-color="#caa84d" stop-opacity=".6"/><stop offset="100%" stop-color="#caa84d" stop-opacity="0"/></linearGradient><radialGradient id="halo" cx="50%" cy="50%" r="50%"><stop offset="0%" stop-color="#caa84d" stop-opacity=".16"/><stop offset="100%" stop-color="#caa84d" stop-opacity="0"/></radialGradient><radialGradient id="mist" cx="50%" cy="100%" r="75%"><stop offset="0%" stop-color="#caa84d" stop-opacity=".05"/><stop offset="100%" stop-color="#caa84d" stop-opacity="0"/></radialGradient><filter id="glow"><feGaussianBlur result="b" stdDeviation="2.5"/><feMerge><feMergeNode in="b"/><feMergeNode in="SourceGraphic"/></feMerge></filter><filter id="glowSoft"><feGaussianBlur result="b" stdDeviation="1.2"/><feMerge><feMergeNode in="b"/><feMergeNode in="SourceGraphic"/></feMerge></filter><clipPath id="frame"><rect width="900" height="330"/></clipPath></defs><style>@keyframes scanDown{0%{transform:translateY(-330px)}}@keyframes blink{0%{opacity:1}50%{opacity:0}}@keyframes rise{0%{opacity:0;transform:translateY(8px)}}@keyframes pulse{0%{opacity:.3}50%{opacity:1}}@keyframes twinkle{0%{opacity:.08}50%{opacity:.55}}@keyframes float{0%{transform:translateY(0)}50%{transform:translateY(-6px)}}@keyframes live{0%{transform:scale(1);opacity:.9}70%{transform:scale(2.6);opacity:0}}@keyframes sweep{0%{transform:rotate(0)}}@keyframes drift{0%{opacity:.04}50%{opacity:.1}}@keyframes spin{0%{transform:rotate(0)}}@keyframes spinRev{0%{transform:rotate(360deg)}}@keyframes rain{0%{transform:translateY(-120px)}}@keyframes breathe{0%{opacity:.18}50%{opacity:.5}}.scan{animation:scanDown 7s linear infinite}.cursor{animation:blink .9s step-end infinite}.r1,.r2{opacity:0;animation:rise .7s ease-out .2s forwards}.r2{animation:rise .7s ease-out .9s forwards}.r3{animation:rise .7s ease-out 1.15s forwards}.r3,.r4,.r5{opacity:0}.r4{animation:rise .7s ease-out 1.4s forwards}.r5{animation:rise .7s ease-out 1.65s forwards}.tw{animation:twinkle 4s infinite ease-in-out}.tw2{animation:twinkle 5s infinite ease-in-out 1.5s}.tw3{animation:twinkle 3.4s infinite ease-in-out 2.4s}.fl{animation:float 7s ease-in-out infinite}.live{animation:live 2.4s ease-out infinite;transform-box:fill-box;transform-origin:center}.sweep{animation:sweep 7s linear infinite;transform-origin:450px 150px}.mistA{animation:drift 9s ease-in-out infinite}.arc1,.arc2{animation:spin 26s linear infinite;transform-origin:450px 150px}.arc2{animation:spinRev 34s linear infinite}.rainCol{animation:rain 5s linear infinite}.breathe{animation:breathe 5s ease-in-out infinite}.fs{font-family:Georgia,&quot;Times New Roman&quot;,serif}.fsa{font-family:Arial,&quot;Segoe UI&quot;,Helvetica,sans-serif}.fm{font-family:&quot;Courier New&quot;,Consolas,monospace}</style><rect width="900" height="330" fill="url(#bgRad)"/><rect width="900" height="330" fill="url(#mist)" class="mistA"/><ellipse cx="450" cy="150" fill="url(#halo)" rx="340" ry="120"/><rect width="900" height="70" fill="#caa84d" class="scan" opacity=".035"/><g fill="#caa84d" class="fm" clip-path="url(#frame)" font-size="11" opacity=".5"><g style="animation-duration:5s" class="rainCol"><text x="34" y="0" opacity=".5">1</text><text x="34" y="22" opacity=".3">0</text><text x="34" y="44" opacity=".7">1</text><text x="34" y="66" opacity=".25">1</text><text x="34" y="88" opacity=".4">0</text></g><g style="animation-duration:7s;animation-delay:-2s" class="rainCol"><text x="70" y="0" opacity=".4">0</text><text x="70" y="22" opacity=".6">1</text><text x="70" y="44" opacity=".3">1</text><text x="70" y="66" opacity=".5">0</text></g><g style="animation-duration:6s;animation-delay:-3.5s" class="rainCol"><text x="106" y="0" opacity=".3">1</text><text x="106" y="22" opacity=".5">1</text><text x="106" y="44" opacity=".25">0</text><text x="106" y="66" opacity=".45">1</text></g><g style="animation-duration:5.5s;animation-delay:-1s" class="rainCol"><text x="830" y="0" opacity=".5">0</text><text x="830" y="22" opacity=".3">1</text><text x="830" y="44" opacity=".6">0</text><text x="830" y="66" opacity=".3">1</text><text x="830" y="88" opacity=".4">0</text></g><g style="animation-duration:6.5s;animation-delay:-3s" class="rainCol"><text x="794" y="0" opacity=".4">1</text><text x="794" y="22" opacity=".55">0</text><text x="794" y="44" opacity=".3">1</text><text x="794" y="66" opacity=".5">0</text></g><g style="animation-duration:7.5s;animation-delay:-4.5s" class="rainCol"><text x="758" y="0" opacity=".3">0</text><text x="758" y="22" opacity=".45">1</text><text x="758" y="44" opacity=".25">1</text><text x="758" y="66" opacity=".4">0</text></g></g><g stroke="#1a1a1f" stroke-width=".3" opacity=".3"><line x1="0" x2="900" y1="66" y2="66"/><line x1="0" x2="900" y1="264" y2="264"/></g><g fill="#caa84d"><circle cx="90" cy="60" r="1.4" class="tw" opacity=".3"/><circle cx="150" cy="90" r="1" class="tw2" opacity=".22"/><circle cx="60" cy="120" r="1.2" class="tw3" opacity=".25"/><circle cx="120" cy="250" r="1.2" class="tw2" opacity=".22"/><circle cx="70" cy="220" r="1" class="tw" opacity=".2"/><circle cx="810" cy="60" r="1.4" class="tw" opacity=".3"/><circle cx="750" cy="90" r="1" class="tw2" opacity=".22"/><circle cx="840" cy="120" r="1.2" class="tw3" opacity=".25"/><circle cx="780" cy="250" r="1.2" class="tw2" opacity=".22"/><circle cx="830" cy="220" r="1" class="tw" opacity=".2"/></g><g stroke="#caa84d" stroke-width=".3" opacity=".07"><line x1="90" x2="150" y1="60" y2="90"/><line x1="150" x2="60" y1="90" y2="120"/><line x1="810" x2="750" y1="60" y2="90"/><line x1="750" x2="840" y1="90" y2="120"/></g><g opacity=".5"><circle cx="450" cy="150" r="150" fill="none" stroke="#caa84d" stroke-width=".3" opacity=".06"/><circle cx="450" cy="150" r="200" fill="none" stroke="#caa84d" stroke-width=".25" opacity=".04"/><g class="sweep"><line x1="450" x2="450" y1="150" y2="0" stroke="#caa84d" stroke-width=".4" opacity=".05"/></g></g><g class="breathe"><g class="arc1"><circle cx="450" cy="150" r="128" fill="none" stroke="#caa84d" stroke-dasharray="2 10" stroke-width=".6" opacity=".35"/><circle cx="450" cy="150" r="118" fill="none" stroke="#caa84d" stroke-dasharray="1 18" stroke-width=".4" opacity=".25"/></g><g class="arc2"><circle cx="450" cy="150" r="104" fill="none" stroke="#caa84d" stroke-width=".5" opacity=".18"/><g stroke="#caa84d" stroke-width=".6" opacity=".3"><line x1="450" x2="450" y1="46" y2="56"/><line x1="450" x2="450" y1="244" y2="254"/><line x1="346" x2="356" y1="150" y2="150"/><line x1="544" x2="554" y1="150" y2="150"/><line x1="376.5" x2="383.5" y1="76.5" y2="83.5"/><line x1="516.5" x2="523.5" y1="216.5" y2="223.5"/><line x1="523.5" x2="516.5" y1="76.5" y2="83.5"/><line x1="383.5" x2="376.5" y1="216.5" y2="223.5"/></g><polygon fill="none" stroke="#caa84d" stroke-width=".4" points="450 72 540 200 360 200" opacity=".12"/><polygon fill="none" stroke="#caa84d" stroke-width=".4" points="450 228 360 100 540 100" opacity=".12"/></g></g><g fill="none" stroke="#caa84d" stroke-width="1" opacity=".4"><polyline points="40 52 40 40 52 40"/><polyline points="860 40 872 40 872 52"/><polyline points="40 278 40 290 52 290"/><polyline points="860 290 872 290 872 278"/></g><g fill="none" stroke="#caa84d" stroke-width=".5" opacity=".2"><path d="M40 64 q10 0 10 -10"/><path d="M860 54 q0 10 10 10"/><path d="M40 266 q10 0 10 10"/><path d="M860 276 q0 -10 10 -10"/></g><g fill="none" stroke="#caa84d" stroke-width=".7" opacity=".22"><polygon points="150 300 158 304 158 313 150 317 142 313 142 304"/><polygon points="750 300 758 304 758 313 750 317 742 313 742 304"/><path d="M150 300 L150 285 M158 304 L172 297 M742 313 L728 320"/><circle cx="150" cy="285" r="1.4" fill="#caa84d" stroke="none"/><circle cx="172" cy="297" r="1.2" fill="#caa84d" stroke="none"/><circle cx="728" cy="320" r="1.2" fill="#caa84d" stroke="none"/></g><g class="r1"><text x="450" y="58" fill="#5c574c" class="fm" font-size="11" letter-spacing="3" text-anchor="middle">user@sec:~$ whoami</text></g><g class="r2"><text x="450" y="148" fill="url(#nameGrad)" class="fsa" font-size="70" font-weight="300" letter-spacing="6" text-anchor="middle">ekaznyra</text><text x="450" y="148" fill="url(#shine)" class="fsa" font-size="70" font-weight="300" letter-spacing="6" text-anchor="middle">ekaznyra</text><rect width="6" height="40" x="660" y="118" fill="#caa84d" class="cursor" opacity=".7"/></g><g class="r3"><rect height="2.4" x="300" y="168" fill="url(#accent)" filter="url(#glow)" rx="1"><animate fill="freeze" attributeName="width" begin="1.15s" calcMode="spline" dur="0.9s" from="0" keySplines="0.16 1 0.3 1" keyTimes="0;1" to="300"/></rect></g><g class="r3"><text x="450" y="202" fill="url(#goldText)" class="fs" font-size="27" font-weight="700" letter-spacing="4" text-anchor="middle">NGUYỄN NGỌC ANH TÚ</text></g><g class="r4"><text x="450" y="228" fill="#8a8578" class="fm" font-size="11.5" letter-spacing="2" text-anchor="middle">Cybersecurity Researcher · DFIR Operative</text></g><g class="r5"><g><rect width="58" height="20" x="300" y="244" fill="#caa84d12" stroke="#caa84d" stroke-width=".7" opacity=".8" rx="4"/><text x="329" y="257" fill="#caa84d" class="fm" font-size="8.5" letter-spacing="1" text-anchor="middle">DFIR</text></g><g><rect width="96" height="20" x="364" y="244" fill="none" stroke="#2a2a31" rx="4"/><text x="412" y="257" fill="#9a958a" class="fm" font-size="8.5" letter-spacing="1" text-anchor="middle">THREAT HUNT</text></g><g><rect width="90" height="20" x="466" y="244" fill="none" stroke="#2a2a31" rx="4"/><text x="511" y="257" fill="#9a958a" class="fm" font-size="8.5" letter-spacing="1" text-anchor="middle">DETECTION</text></g><g><rect width="58" height="20" x="562" y="244" fill="none" stroke="#2a2a31" rx="4"/><text x="591" y="257" fill="#9a958a" class="fm" font-size="8.5" letter-spacing="1" text-anchor="middle">SIGMA</text></g></g><g class="r5"><circle cx="392" cy="287" r="3.4" fill="#3fb950"/><circle cx="392" cy="287" r="3.4" fill="#3fb950" class="live"/><text x="404" y="291" fill="#3fb950" class="fm" font-size="9" letter-spacing="1.5">OPEN TO COLLABORATE</text></g><rect width="900" height="2" x="0" y="0" fill="url(#edge)"/><rect width="900" height="2" x="0" y="328" fill="url(#edge)"/><rect width="900" height="330" fill="url(#vign)"/><circle cx="220" cy="80" r="1" fill="#caa84d" class="fl" opacity=".25"/><circle style="animation-delay:2s" cx="680" cy="100" r=".9" fill="#caa84d" class="fl" opacity=".2"/><circle style="animation-delay:4s" cx="600" cy="300" r="1" fill="#8a8578" class="fl" opacity=".12"/></svg>