<svg viewBox="0 0 900 320" xmlns="http://www.w3.org/2000/svg">
  <defs>
    <linearGradient id="scanline" x1="0%" y1="0%" x2="0%" y2="100%">
      <stop offset="0%" stop-color="#00ff41" stop-opacity="0"/>
      <stop offset="50%" stop-color="#00ff41" stop-opacity="0.08"/>
      <stop offset="100%" stop-color="#00ff41" stop-opacity="0"/>
    </linearGradient>
    <filter id="glow">
      <feGaussianBlur stdDeviation="2" result="blur"/>
      <feComposite in="SourceGraphic" in2="blur" operator="over"/>
    </filter>
    <filter id="glitch1">
      <feOffset dx="2" dy="0" in="SourceGraphic" result="r"/>
      <feOffset dx="-2" dy="0" in="SourceGraphic" result="b"/>
      <feColorMatrix in="r" type="matrix" values="1 0 0 0 0  0 0 0 0 0  0 0 0 0 0  0 0 0 1 0" result="red"/>
      <feColorMatrix in="b" type="matrix" values="0 0 0 0 0  0 0 0 0 0  0 0 1 0 0  0 0 0 1 0" result="blue"/>
      <feBlend in="red" in2="blue" mode="screen" result="blend"/>
      <feBlend in="SourceGraphic" in2="blend" mode="screen"/>
    </filter>
    <clipPath id="radarClip">
      <circle cx="780" cy="160" r="90"/>
    </clipPath>
  </defs>
  
  <style>
    @keyframes scanMove {
      0% { transform: translateY(-320px); }
      100% { transform: translateY(320px); }
    }
    @keyframes pulse {
      0%, 100% { opacity: 0.4; }
      50% { opacity: 1; }
    }
    @keyframes radarSweep {
      0% { transform: rotate(0deg); }
      100% { transform: rotate(360deg); }
    }
    @keyframes blink {
      0%, 49% { opacity: 1; }
      50%, 100% { opacity: 0; }
    }
    @keyframes fadeIn {
      0% { opacity: 0; }
      100% { opacity: 1; }
    }
    @keyframes glitchShift {
      0%, 90%, 100% { transform: translate(0, 0); }
      92% { transform: translate(-3px, 1px); }
      94% { transform: translate(3px, -1px); }
      96% { transform: translate(-1px, 2px); }
      98% { transform: translate(2px, -2px); }
    }
    @keyframes matrixFall {
      0% { transform: translateY(-100%); opacity: 0; }
      10% { opacity: 0.6; }
      90% { opacity: 0.6; }
      100% { transform: translateY(320px); opacity: 0; }
    }
    @keyframes typewriter {
      0% { width: 0; }
      100% { width: 100%; }
    }
    @keyframes dotPulse {
      0%, 100% { r: 2; opacity: 0.3; }
      50% { r: 4; opacity: 1; }
    }
    .scanline-bar {
      animation: scanMove 4s linear infinite;
    }
    .radar-sweep {
      transform-origin: 780px 160px;
      animation: radarSweep 4s linear infinite;
    }
    .cursor-blink {
      animation: blink 1s step-end infinite;
    }
    .glitch-text {
      animation: glitchShift 6s ease-in-out infinite;
    }
    .matrix-char {
      font-family: 'Courier New', monospace;
      font-size: 11px;
      fill: #00ff41;
      opacity: 0.15;
    }
    .m1 { animation: matrixFall 8s linear infinite; }
    .m2 { animation: matrixFall 6s linear infinite 1s; }
    .m3 { animation: matrixFall 10s linear infinite 2s; }
    .m4 { animation: matrixFall 7s linear infinite 0.5s; }
    .m5 { animation: matrixFall 9s linear infinite 3s; }
    .m6 { animation: matrixFall 5s linear infinite 1.5s; }
    .m7 { animation: matrixFall 11s linear infinite 2.5s; }
    .m8 { animation: matrixFall 6.5s linear infinite 0.8s; }
    .dot-pulse {
      animation: dotPulse 2s ease-in-out infinite;
    }
    .dot-pulse2 {
      animation: dotPulse 2s ease-in-out infinite 0.5s;
    }
    .dot-pulse3 {
      animation: dotPulse 2s ease-in-out infinite 1s;
    }
    .fade1 { animation: fadeIn 1s ease-out 0.5s both; }
    .fade2 { animation: fadeIn 1s ease-out 1s both; }
    .fade3 { animation: fadeIn 1s ease-out 1.5s both; }
    .fade4 { animation: fadeIn 1s ease-out 2s both; }
  </style>
  
  <!-- Background -->
  <rect width="900" height="320" fill="#0a0e17"/>
  
  <!-- Grid pattern -->
  <g opacity="0.04" stroke="#00ff41" stroke-width="0.5">
    <line x1="0" y1="0" x2="0" y2="320"/><line x1="30" y1="0" x2="30" y2="320"/>
    <line x1="60" y1="0" x2="60" y2="320"/><line x1="90" y1="0" x2="90" y2="320"/>
    <line x1="120" y1="0" x2="120" y2="320"/><line x1="150" y1="0" x2="150" y2="320"/>
    <line x1="180" y1="0" x2="180" y2="320"/><line x1="210" y1="0" x2="210" y2="320"/>
    <line x1="240" y1="0" x2="240" y2="320"/><line x1="270" y1="0" x2="270" y2="320"/>
    <line x1="300" y1="0" x2="300" y2="320"/><line x1="330" y1="0" x2="330" y2="320"/>
    <line x1="360" y1="0" x2="360" y2="320"/><line x1="390" y1="0" x2="390" y2="320"/>
    <line x1="420" y1="0" x2="420" y2="320"/><line x1="450" y1="0" x2="450" y2="320"/>
    <line x1="480" y1="0" x2="480" y2="320"/><line x1="510" y1="0" x2="510" y2="320"/>
    <line x1="540" y1="0" x2="540" y2="320"/><line x1="570" y1="0" x2="570" y2="320"/>
    <line x1="600" y1="0" x2="600" y2="320"/><line x1="630" y1="0" x2="630" y2="320"/>
    <line x1="660" y1="0" x2="660" y2="320"/><line x1="690" y1="0" x2="690" y2="320"/>
    <line x1="720" y1="0" x2="720" y2="320"/><line x1="750" y1="0" x2="750" y2="320"/>
    <line x1="780" y1="0" x2="780" y2="320"/><line x1="810" y1="0" x2="810" y2="320"/>
    <line x1="840" y1="0" x2="840" y2="320"/><line x1="870" y1="0" x2="870" y2="320"/>
    <line x1="900" y1="0" x2="900" y2="320"/>
    <line x1="0" y1="0" x2="900" y2="0"/><line x1="0" y1="30" x2="900" y2="30"/>
    <line x1="0" y1="60" x2="900" y2="60"/><line x1="0" y1="90" x2="900" y2="90"/>
    <line x1="0" y1="120" x2="900" y2="120"/><line x1="0" y1="150" x2="900" y2="150"/>
    <line x1="0" y1="180" x2="900" y2="180"/><line x1="0" y1="210" x2="900" y2="210"/>
    <line x1="0" y1="240" x2="900" y2="240"/><line x1="0" y1="270" x2="900" y2="270"/>
    <line x1="0" y1="300" x2="900" y2="300"/>
  </g>
  
  <!-- Matrix rain characters -->
  <text class="matrix-char m1" x="45" y="0">01001</text>
  <text class="matrix-char m2" x="120" y="0">10110</text>
  <text class="matrix-char m3" x="200" y="0">11001</text>
  <text class="matrix-char m4" x="340" y="0">01110</text>
  <text class="matrix-char m5" x="480" y="0">10010</text>
  <text class="matrix-char m6" x="560" y="0">11100</text>
  <text class="matrix-char m7" x="640" y="0">01011</text>
  <text class="matrix-char m8" x="850" y="0">10101</text>
  
  <!-- Scanline effect -->
  <rect class="scanline-bar" x="0" y="0" width="900" height="120" fill="url(#scanline)"/>
  
  <!-- Top status bar -->
  <g class="fade1">
    <rect x="0" y="0" width="900" height="28" fill="#0d1220" opacity="0.9"/>
    <text x="15" y="18" font-family="'Courier New', monospace" font-size="10" fill="#00ff41" opacity="0.7">
      ■ SIGINT INTERCEPT TERMINAL v4.2.1
    </text>
    <text x="480" y="18" font-family="'Courier New', monospace" font-size="10" fill="#3a4553" opacity="0.6">
      │ CLEARANCE: TS/SCI │ SESSION: ACTIVE │ ENCRYPTION: AES-256-GCM
    </text>
  </g>
  
  <!-- Left section: Identity block -->
  <g class="fade2 glitch-text">
    <!-- Name with glitch filter on hover -->
    <text x="40" y="80" font-family="'Courier New', monospace" font-size="11" fill="#3a4553">
      SUBJECT IDENTIFICATION ────────────────────────
    </text>
    <text x="40" y="115" font-family="'Courier New', monospace" font-weight="bold" font-size="32" fill="#e2e8f0" filter="url(#glow)">
      NGUYEN NGOC ANH TU
    </text>
    <text x="40" y="142" font-family="'Courier New', monospace" font-size="13" fill="#00ff41" opacity="0.85">
      ◆ CYBERSECURITY ANALYST IN TRAINING
    </text>
  </g>
  
  <!-- Classification tags -->
  <g class="fade3">
    <text x="40" y="178" font-family="'Courier New', monospace" font-size="10" fill="#3a4553">
      OPERATIONAL FOCUS ──────────────────────────────
    </text>
    
    <!-- Tags as bordered boxes -->
    <rect x="40" y="190" width="52" height="22" rx="3" fill="none" stroke="#ff6b6b" stroke-width="1" opacity="0.7"/>
    <text x="49" y="205" font-family="'Courier New', monospace" font-size="9" fill="#ff6b6b">DFIR</text>
    
    <rect x="100" y="190" width="120" height="22" rx="3" fill="none" stroke="#ffd93d" stroke-width="1" opacity="0.7"/>
    <text x="109" y="205" font-family="'Courier New', monospace" font-size="9" fill="#ffd93d">THREAT HUNTING</text>
    
    <rect x="228" y="190" width="87" height="22" rx="3" fill="none" stroke="#6bcb77" stroke-width="1" opacity="0.7"/>
    <text x="237" y="205" font-family="'Courier New', monospace" font-size="9" fill="#6bcb77">DETECTION</text>
    
    <rect x="323" y="190" width="108" height="22" rx="3" fill="none" stroke="#4d96ff" stroke-width="1" opacity="0.7"/>
    <text x="332" y="205" font-family="'Courier New', monospace" font-size="9" fill="#4d96ff">SOC ANALYST</text>
    
    <rect x="439" y="190" width="108" height="22" rx="3" fill="none" stroke="#9b72cf" stroke-width="1" opacity="0.7"/>
    <text x="448" y="205" font-family="'Courier New', monospace" font-size="9" fill="#9b72cf">MALWARE LAB</text>
  </g>
  
  <!-- Terminal prompt -->
  <g class="fade4">
    <text x="40" y="250" font-family="'Courier New', monospace" font-size="11" fill="#3a4553">
      MISSION STATEMENT ──────────────────────────────
    </text>
    <text x="40" y="272" font-family="'Courier New', monospace" font-size="11" fill="#8b949e">
      Observe → Investigate → Document → Improve
    </text>
    <text x="40" y="292" font-family="'Courier New', monospace" font-size="10" fill="#586069">
      "Understanding systems. Investigating evidence. Building better defenses."
    </text>
  </g>
  
  <!-- Radar display (right side) -->
  <g class="fade2">
    <!-- Radar background -->
    <circle cx="780" cy="160" r="90" fill="none" stroke="#162233" stroke-width="1"/>
    <circle cx="780" cy="160" r="67" fill="none" stroke="#162233" stroke-width="0.5"/>
    <circle cx="780" cy="160" r="45" fill="none" stroke="#162233" stroke-width="0.5"/>
    <circle cx="780" cy="160" r="22" fill="none" stroke="#162233" stroke-width="0.5"/>
    <line x1="690" y1="160" x2="870" y2="160" stroke="#162233" stroke-width="0.5"/>
    <line x1="780" y1="70" x2="780" y2="250" stroke="#162233" stroke-width="0.5"/>
    
    <!-- Radar sweep -->
    <g clip-path="url(#radarClip)">
      <g class="radar-sweep">
        <line x1="780" y1="160" x2="870" y2="160" stroke="#00ff41" stroke-width="1.5" opacity="0.8"/>
        <path d="M780,160 L870,160 A90,90 0 0,0 843.6,96.8 Z" fill="#00ff41" opacity="0.1"/>
      </g>
    </g>
    
    <!-- Blips on radar -->
    <circle cx="755" cy="130" r="2" fill="#00ff41" class="dot-pulse"/>
    <circle cx="810" cy="145" r="2" fill="#ff6b6b" class="dot-pulse2"/>
    <circle cx="765" cy="185" r="2" fill="#ffd93d" class="dot-pulse3"/>
    <circle cx="800" cy="180" r="2" fill="#00ff41" class="dot-pulse"/>
    <circle cx="740" cy="170" r="2" fill="#4d96ff" class="dot-pulse2"/>
    
    <!-- Radar label -->
    <text x="780" y="265" text-anchor="middle" font-family="'Courier New', monospace" font-size="8" fill="#3a4553">
      THREAT LANDSCAPE MONITOR
    </text>
  </g>
  
  <!-- Bottom status bar -->
  <g class="fade4">
    <rect x="0" y="295" width="900" height="25" fill="#0d1220" opacity="0.7"/>
    <text x="15" y="311" font-family="'Courier New', monospace" font-size="9" fill="#3a4553">
      SYS.STATUS: OPERATIONAL
    </text>
    <circle cx="130" cy="307" r="3" fill="#00ff41" class="dot-pulse"/>
    <text x="140" y="311" font-family="'Courier New', monospace" font-size="9" fill="#3a4553">
      │ UPTIME: 365d │ ALERTS: MONITORING │ LAST SCAN: NOW
    </text>
    <text x="820" y="311" font-family="'Courier New', monospace" font-size="9" fill="#00ff41" class="cursor-blink">
      █
    </text>
  </g>
</svg>
