<svg viewBox="0 0 900 300" xmlns="http://www.w3.org/2000/svg">
  <defs>
    <linearGradient id="bg" x1="0%" y1="0%" x2="100%" y2="100%">
      <stop offset="0%" stop-color="#000000"/>
      <stop offset="50%" stop-color="#050505"/>
      <stop offset="100%" stop-color="#000000"/>
    </linearGradient>

    <filter id="softGlow">
      <feGaussianBlur stdDeviation="2" result="blur1"/>
      <feMerge>
        <feMergeNode in="blur1"/>
        <feMergeNode in="SourceGraphic"/>
      </feMerge>
    </filter>
  </defs>

  <style>
    @keyframes progressGlow { 0%, 100% { opacity: 0.7; } 50% { opacity: 1; filter: drop-shadow(0 0 4px #d4af37); } }
    .gold-bar { animation: progressGlow 4s infinite ease-in-out; }
    .silver-bar { animation: progressGlow 4s infinite ease-in-out 2s; }

    .font-sans { font-family: "Segoe UI", -apple-system, BlinkMacSystemFont, Roboto, "Helvetica Neue", Arial, sans-serif; }
    .font-mono { font-family: Consolas, "SFMono-Regular", Menlo, Monaco, "Liberation Mono", monospace; }
  </style>

  <rect width="900" height="300" fill="url(#bg)"/>

  <!-- Minimal Grid -->
  <g stroke="#ffffff" stroke-width="0.5" opacity="0.05">
    <line x1="200" y1="0" x2="200" y2="300"/>
    <line x1="400" y1="0" x2="400" y2="300"/>
    <line x1="600" y1="0" x2="600" y2="300"/>
    <line x1="800" y1="0" x2="800" y2="300"/>
  </g>

  <text x="200" y="32" class="font-mono" font-size="9" font-weight="normal" fill="#777777">20%</text>
  <text x="400" y="32" class="font-mono" font-size="9" font-weight="normal" fill="#777777">40%</text>
  <text x="600" y="32" class="font-mono" font-size="9" font-weight="normal" fill="#777777">60%</text>
  <text x="800" y="32" class="font-mono" font-size="9" font-weight="normal" fill="#d4af37">80%</text>

  <!-- Title -->
  <text x="50" y="28" class="font-sans" font-weight="600" font-size="11" fill="#a9a9a9" letter-spacing="4">
    CAPABILITY MATRIX
  </text>
  <line x1="50" y1="40" x2="150" y2="40" stroke="#d4af37" stroke-width="1" filter="url(#softGlow)"/>

  <!-- Row 1: DFIR (Gold) -->
  <text x="50" y="80" class="font-mono" font-size="11" font-weight="normal" fill="#ffffff">DFIR</text>
  <text x="50" y="95" class="font-sans" font-size="10" font-weight="normal" fill="#b8860b">Acquisition · Memory · Timelines</text>
  <line x1="200" y1="80" x2="800" y2="80" stroke="#111111" stroke-width="2" stroke-linecap="round"/>
  <line x1="200" y1="80" x2="800" y2="80" stroke="#d4af37" stroke-width="2" stroke-linecap="round" class="gold-bar"/>
  <rect x="798" y="78" width="4" height="4" fill="#ffffff" transform="rotate(45 800 80)"/>

  <!-- Row 2: Hunting (Silver) -->
  <text x="50" y="120" class="font-mono" font-size="11" font-weight="normal" fill="#ffffff">HUNTING</text>
  <text x="50" y="135" class="font-sans" font-size="10" font-weight="normal" fill="#a9a9a9">MITRE ATT&amp;CK · Hypotheses</text>
  <line x1="200" y1="120" x2="750" y2="120" stroke="#111111" stroke-width="2" stroke-linecap="round"/>
  <line x1="200" y1="120" x2="750" y2="120" stroke="#a9a9a9" stroke-width="2" stroke-linecap="round" class="silver-bar"/>
  <rect x="748" y="118" width="4" height="4" fill="#ffffff" transform="rotate(45 750 120)"/>

  <!-- Row 3: Detection (Gold) -->
  <text x="50" y="160" class="font-mono" font-size="11" font-weight="normal" fill="#ffffff">DETECTION</text>
  <text x="50" y="175" class="font-sans" font-size="10" font-weight="normal" fill="#b8860b">YARA · Sigma · Coverage</text>
  <line x1="200" y1="160" x2="700" y2="160" stroke="#111111" stroke-width="2" stroke-linecap="round"/>
  <line x1="200" y1="160" x2="700" y2="160" stroke="#d4af37" stroke-width="2" stroke-linecap="round" class="gold-bar"/>
  <rect x="698" y="158" width="4" height="4" fill="#ffffff" transform="rotate(45 700 160)"/>

  <!-- Row 4: SOC Ops (Silver) -->
  <text x="50" y="200" class="font-mono" font-size="11" font-weight="normal" fill="#ffffff">SOC OPS</text>
  <text x="50" y="215" class="font-sans" font-size="10" font-weight="normal" fill="#a9a9a9">SIEM · Triage · Endpoint</text>
  <line x1="200" y1="200" x2="650" y2="200" stroke="#111111" stroke-width="2" stroke-linecap="round"/>
  <line x1="200" y1="200" x2="650" y2="200" stroke="#a9a9a9" stroke-width="2" stroke-linecap="round" class="silver-bar"/>
  <rect x="648" y="198" width="4" height="4" fill="#ffffff" transform="rotate(45 650 200)"/>

  <!-- Row 5: Code (Gold) -->
  <text x="50" y="240" class="font-mono" font-size="11" font-weight="normal" fill="#ffffff">CODE</text>
  <text x="50" y="255" class="font-sans" font-size="10" font-weight="normal" fill="#b8860b">Python · Bash · Automation</text>
  <line x1="200" y1="240" x2="700" y2="240" stroke="#111111" stroke-width="2" stroke-linecap="round"/>
  <line x1="200" y1="240" x2="700" y2="240" stroke="#d4af37" stroke-width="2" stroke-linecap="round" class="gold-bar"/>
  <rect x="698" y="238" width="4" height="4" fill="#ffffff" transform="rotate(45 700 240)"/>

  <!-- Row 6: Malware (Silver) -->
  <text x="50" y="280" class="font-mono" font-size="11" font-weight="normal" fill="#ffffff">MALWARE</text>
  <text x="50" y="295" class="font-sans" font-size="10" font-weight="normal" fill="#a9a9a9">Static/Dynamic Analysis</text>
  <line x1="200" y1="280" x2="600" y2="280" stroke="#111111" stroke-width="2" stroke-linecap="round"/>
  <line x1="200" y1="280" x2="600" y2="280" stroke="#a9a9a9" stroke-width="2" stroke-linecap="round" class="silver-bar"/>
  <rect x="598" y="278" width="4" height="4" fill="#ffffff" transform="rotate(45 600 280)"/>

</svg>
