<svg xmlns="http://www.w3.org/2000/svg" viewBox="0 0 900 250"><defs><radialGradient id="bgRad" cx="50%" cy="0%" r="100%"><stop offset="0%" stop-color="#13110a"/><stop offset="58%" stop-color="#0a0a0c"/><stop offset="100%" stop-color="#000"/></radialGradient><radialGradient id="vign" cx="50%" cy="50%" r="70%"><stop offset="60%" stop-color="#000" stop-opacity="0"/><stop offset="100%" stop-color="#000" stop-opacity=".75"/></radialGradient><linearGradient id="barGold" x1="0%" x2="100%" y1="0%" y2="0%"><stop offset="0%" stop-color="#a9863a"/><stop offset="100%" stop-color="#f5e3a3"/></linearGradient><linearGradient id="barSilver" x1="0%" x2="100%" y1="0%" y2="0%"><stop offset="0%" stop-color="#55524a"/><stop offset="100%" stop-color="#9a958a"/></linearGradient><filter id="glow"><feGaussianBlur result="b" stdDeviation="2"/><feMerge><feMergeNode in="b"/><feMergeNode in="SourceGraphic"/></feMerge></filter></defs><style>@keyframes grow{0%{transform:scaleX(0)}}@keyframes pulse{0%{opacity:.5}50%{opacity:1}}@keyframes fadeUp{0%{opacity:0;transform:translateY(4px)}}.bar{transform-origin:60px 0;transform:scaleX(0);animation:grow 1.3s cubic-bezier(.16,1,.3,1) forwards}.b1{animation-delay:.3s}.b2{animation-delay:.5s}.b3{animation-delay:.7s}.b4{animation-delay:.9s}.b5{animation-delay:1.1s}.lab{opacity:0;animation:fadeUp .5s ease-out forwards}.l1{animation-delay:.3s}.l2{animation-delay:.5s}.l3{animation-delay:.7s}.l4{animation-delay:.9s}.l5{animation-delay:1.1s}.fsa{font-family:Arial,&quot;Segoe UI&quot;,Helvetica,sans-serif}.fm{font-family:&quot;Courier New&quot;,Consolas,monospace}</style><rect width="900" height="250" fill="url(#bgRad)"/><text x="60" y="30" fill="#5c574c" class="fm" font-size="10" letter-spacing="4">// SKILLS</text><rect width="6" height="6" x="120" y="23" fill="#caa84d" opacity=".6" transform="rotate(45 123 26)"/><line x1="60" x2="840" y1="40" y2="40" stroke="#1a1a1f" stroke-width=".5"/><g class="lab l1"><text x="60" y="75" fill="#ece6d8" class="fsa" font-size="12" font-weight="500">DFIR</text><text x="840" y="75" fill="#caa84d" class="fm" font-size="10" text-anchor="end">90% · advanced</text></g><rect width="780" height="4" x="60" y="82" fill="#15151a" rx="2"/><rect width="702" height="4" x="60" y="82" fill="url(#barGold)" class="bar b1" filter="url(#glow)" rx="2"/><g class="lab l2"><text x="60" y="115" fill="#ece6d8" class="fsa" font-size="12" font-weight="500">Threat Hunting</text><text x="840" y="115" fill="#caa84d" class="fm" font-size="10" text-anchor="end">82% · advanced</text></g><rect width="780" height="4" x="60" y="122" fill="#15151a" rx="2"/><rect width="640" height="4" x="60" y="122" fill="url(#barGold)" class="bar b2" filter="url(#glow)" rx="2"/><g class="lab l3"><text x="60" y="155" fill="#ece6d8" class="fsa" font-size="12" font-weight="500">Detection Engineering</text><text x="840" y="155" fill="#8a8578" class="fm" font-size="10" text-anchor="end">72% · intermediate</text></g><rect width="780" height="4" x="60" y="162" fill="#15151a" rx="2"/><rect width="562" height="4" x="60" y="162" fill="url(#barSilver)" class="bar b3" rx="2"/><g class="lab l4"><text x="60" y="195" fill="#ece6d8" class="fsa" font-size="12" font-weight="500">Python &amp; Automation</text><text x="840" y="195" fill="#8a8578" class="fm" font-size="10" text-anchor="end">67% · intermediate</text></g><rect width="780" height="4" x="60" y="202" fill="#15151a" rx="2"/><rect width="522" height="4" x="60" y="202" fill="url(#barSilver)" class="bar b4" rx="2"/><g class="lab l5"><text x="60" y="235" fill="#ece6d8" class="fsa" font-size="12" font-weight="500">Malware Analysis</text><text x="840" y="235" fill="#5c574c" class="fm" font-size="10" text-anchor="end">51% · learning</text></g><rect width="780" height="4" x="60" y="242" fill="#15151a" rx="2"/><rect width="400" height="4" x="60" y="242" fill="#55524a" class="bar b5" rx="2"/><rect width="900" height="250" fill="url(#vign)"/></svg>